<svg version="1.1" xmlns="http://www.w3.org/2000/svg" viewBox="0 0 1638.1104266732996 2239.2469946644965" width="1638.1104266732996" height="2239.2469946644965">
  <!-- svg-source:excalidraw -->
  
  <defs>
    <style class="style-fonts">
      @font-face {
        font-family: "Virgil";
        src: url("https://excalidraw.com/Virgil.woff2");
      }
      @font-face {
        font-family: "Cascadia";
        src: url("https://excalidraw.com/Cascadia.woff2");
      }
    </style>
  </defs>
  <rect x="0" y="0" width="1638.1104266732996" height="2239.2469946644965" fill="#ffffff"></rect><g stroke-linecap="round" transform="translate(517.1923531981895 312.8648924682284) rotate(0 71.5 33)"><path d="M16.5 0 M16.5 0 C49.46 -0.43, 78.39 -0.38, 126.5 0 M16.5 0 C59.63 -0.91, 104.19 0.08, 126.5 0 M126.5 0 C137.01 -0.95, 141.89 5.23, 143 16.5 M126.5 0 C136.2 2.03, 145.23 7.61, 143 16.5 M143 16.5 C143.49 28.99, 144.84 40.7, 143 49.5 M143 16.5 C143.51 26.61, 141.95 36.11, 143 49.5 M143 49.5 C141.34 59.02, 138.06 65.9, 126.5 66 M143 49.5 C144.8 60.4, 135.98 67.55, 126.5 66 M126.5 66 C87.57 63.49, 45.25 63.72, 16.5 66 M126.5 66 C96.68 65.9, 66.51 65.99, 16.5 66 M16.5 66 C5.86 65.27, -0.73 59.73, 0 49.5 M16.5 66 C5.8 64.08, -0.15 59.4, 0 49.5 M0 49.5 C1.51 38.79, -1.29 28.47, 0 16.5 M0 49.5 C-0.52 36.71, -0.16 25.69, 0 16.5 M0 16.5 C1.01 3.69, 4.82 -0.79, 16.5 0 M0 16.5 C0.29 6.55, 5.42 -0.98, 16.5 0" stroke="#2b8a3e" stroke-width="2" fill="none"></path></g><g transform="translate(534.6923531981895 328.3648924682284) rotate(0 54 17.5)"><text x="54" y="24" font-family="Virgil, Segoe UI Emoji" font-size="28px" fill="#2b8a3e" text-anchor="middle" style="white-space: pre;" direction="ltr">YT-DLP</text></g><g stroke-linecap="round" transform="translate(588.3739507794545 673.2336542633087) rotate(0 80.61428547003248 37.41082859940724)"><path d="M18.71 0 M18.71 0 C61.34 0.67, 106.47 0.35, 142.52 0 M18.71 0 C50.25 -0.44, 82.85 -0.3, 142.52 0 M142.52 0 C154.21 -1.7, 161.61 7.77, 161.23 18.71 M142.52 0 C156.62 -1.05, 159.03 4.92, 161.23 18.71 M161.23 18.71 C160.78 28.33, 159.69 43.7, 161.23 56.12 M161.23 18.71 C161.91 32.69, 161.02 44.96, 161.23 56.12 M161.23 56.12 C160.24 68.49, 155.46 75.27, 142.52 74.82 M161.23 56.12 C160.18 67.44, 153.23 75.47, 142.52 74.82 M142.52 74.82 C96.79 75.94, 49.77 75.82, 18.71 74.82 M142.52 74.82 C115.66 74.13, 87.45 74.91, 18.71 74.82 M18.71 74.82 C7.51 75.69, 1.91 68.67, 0 56.12 M18.71 74.82 C7.51 76.2, -1.54 68.52, 0 56.12 M0 56.12 C0.8 47.31, 1.31 39.73, 0 18.71 M0 56.12 C-0.7 40.71, -0.34 27.57, 0 18.71 M0 18.71 C1.78 5.47, 4.59 -1.94, 18.71 0 M0 18.71 C-1.02 7.09, 6.75 -0.74, 18.71 0" stroke="#2b8a3e" stroke-width="2" fill="none"></path></g><g transform="translate(623.988236249487 693.144482862716) rotate(0 45 17.5)"><text x="45" y="24" font-family="Virgil, Segoe UI Emoji" font-size="28px" fill="#2b8a3e" text-anchor="middle" style="white-space: pre;" direction="ltr">ffmpeg</text></g><g stroke-linecap="round" transform="translate(462.01581834707247 155.15300137221772) rotate(0 112.99999999999994 40.5)"><path d="M142.5 10.25 M142.5 10.25 C161.1 14.54, 175.55 22.59, 197.5 30.75 M142.5 10.25 C156.44 16.85, 171.3 20.36, 197.5 30.75 M197.5 30.75 C224.97 40.71, 227.23 39.73, 197.5 51.25 M197.5 30.75 C225.52 41.57, 224.54 43.13, 197.5 51.25 M197.5 51.25 C187.04 57.02, 172.41 58.99, 142.5 70.75 M197.5 51.25 C178.08 57.65, 158.11 66.35, 142.5 70.75 M142.5 70.75 C112.61 81.6, 115.18 82, 85.5 70.75 M142.5 70.75 C114.15 80.18, 111.73 81.6, 85.5 70.75 M85.5 70.75 C65.62 64.74, 44.76 54.54, 28.5 51.25 M85.5 70.75 C66.52 64.67, 49.01 58.1, 28.5 51.25 M28.5 51.25 C-0.59 41.15, -0.48 42.92, 28.5 30.75 M28.5 51.25 C0.86 42.11, 1.31 39.77, 28.5 30.75 M28.5 30.75 C44.83 26.81, 59.94 21.71, 85.5 10.25 M28.5 30.75 C48.51 24.36, 65.84 17.04, 85.5 10.25 M85.5 10.25 C113.71 1.32, 114.9 -0.28, 142.5 10.25 M85.5 10.25 C112.03 -1, 112.83 -2.1, 142.5 10.25" stroke="#364fc7" stroke-width="2" fill="none"></path></g><g transform="translate(508.51581834707247 183.15300137221772) rotate(0 66.5 12.5)"><text x="66.5" y="18" font-family="Virgil, Segoe UI Emoji" font-size="20px" fill="#364fc7" text-anchor="middle" style="white-space: pre;" direction="ltr">YouTube URL</text></g><g stroke-linecap="round"><g transform="translate(574.9522449684025 237.15097853905297) rotate(0 4.931069549947097 29.855020203065692)"><path d="M0 0 C1.64 9.95, 8.22 49.76, 9.86 59.71 M0 0 C1.64 9.95, 8.22 49.76, 9.86 59.71" stroke="#000000" stroke-width="2" fill="none"></path></g><g transform="translate(574.9522449684025 237.15097853905297) rotate(0 4.931069549947097 29.855020203065692)"><path d="M-4.86 33.57 C-1.78 39.02, 1.29 44.48, 9.86 59.71 M-4.86 33.57 C0.57 43.2, 5.99 52.84, 9.86 59.71" stroke="#000000" stroke-width="2" fill="none"></path></g><g transform="translate(574.9522449684025 237.15097853905297) rotate(0 4.931069549947097 29.855020203065692)"><path d="M15.39 30.22 C14.24 36.38, 13.08 42.53, 9.86 59.71 M15.39 30.22 C13.35 41.09, 11.32 51.96, 9.86 59.71" stroke="#000000" stroke-width="2" fill="none"></path></g></g><mask></mask><g stroke-linecap="round" transform="translate(733.0571375043703 156.0263396019942) rotate(0 113 40.5)"><path d="M142.5 10.25 M142.5 10.25 C161.1 15.49, 180.3 25.47, 197.5 30.75 M142.5 10.25 C155.25 16.07, 168.96 19.4, 197.5 30.75 M197.5 30.75 C226.33 40.32, 224.27 39.63, 197.5 51.25 M197.5 30.75 C224.54 42.83, 224.15 38.99, 197.5 51.25 M197.5 51.25 C175.36 56.71, 154.59 64.26, 142.5 70.75 M197.5 51.25 C180.37 57.24, 163.69 62.72, 142.5 70.75 M142.5 70.75 C115.1 79.19, 114.13 79.12, 85.5 70.75 M142.5 70.75 C114.16 83.01, 112.3 79.23, 85.5 70.75 M85.5 70.75 C65.25 66.09, 42.26 55.3, 28.5 51.25 M85.5 70.75 C67.37 64.26, 48.22 57.27, 28.5 51.25 M28.5 51.25 C0.84 41.66, 0.08 40.01, 28.5 30.75 M28.5 51.25 C-1.36 40.68, 0.94 40.87, 28.5 30.75 M28.5 30.75 C43.8 26.54, 56.55 21.52, 85.5 10.25 M28.5 30.75 C49.4 24.83, 69.83 16.14, 85.5 10.25 M85.5 10.25 C112.02 0.14, 112.78 0.09, 142.5 10.25 M85.5 10.25 C113.43 -0.24, 113.94 0.5, 142.5 10.25" stroke="#364fc7" stroke-width="2" fill="none"></path></g><g transform="translate(801.0571375043703 184.0263396019942) rotate(0 45 12.5)"><text x="45" y="18" font-family="Virgil, Segoe UI Emoji" font-size="20px" fill="#364fc7" text-anchor="middle" style="white-space: pre;" direction="ltr">Video file</text></g><g mask="url(#mask-toqpMmeC06kjLaKLTp-OF)" stroke-linecap="round"><g transform="translate(852.5132324727181 237.1746827148239) rotate(0 -61.80559203145697 128.02685746217549)"><path d="M0 0 C-5.87 19.3, -14.59 73.11, -35.19 115.79 C-55.79 158.46, -108.87 232.68, -123.61 256.05 M0 0 C-5.87 19.3, -14.59 73.11, -35.19 115.79 C-55.79 158.46, -108.87 232.68, -123.61 256.05" stroke="#000000" stroke-width="2" fill="none"></path></g><g transform="translate(852.5132324727181 237.1746827148239) rotate(0 -61.80559203145697 128.02685746217549)"><path d="M-116.51 226.91 C-118.84 236.5, -121.18 246.09, -123.61 256.05 M-116.51 226.91 C-117.96 232.86, -119.41 238.81, -123.61 256.05" stroke="#000000" stroke-width="2" fill="none"></path></g><g transform="translate(852.5132324727181 237.1746827148239) rotate(0 -61.80559203145697 128.02685746217549)"><path d="M-99.43 238.29 C-107.39 244.14, -115.34 249.98, -123.61 256.05 M-99.43 238.29 C-104.37 241.92, -109.3 245.55, -123.61 256.05" stroke="#000000" stroke-width="2" fill="none"></path></g></g><mask id="mask-toqpMmeC06kjLaKLTp-OF"><rect x="0" y="0" fill="#fff" width="1076.124416535632" height="593.2283976391749"></rect><rect x="770.8219234713658" y="335.461730782794" fill="#000" width="93" height="35" opacity="1"></rect></mask><g transform="translate(770.8219234713658 335.46173078279406) rotate(0 19.88571696989527 29.73980939420531)"><text x="46.5" y="24" font-family="Virgil, Segoe UI Emoji" font-size="28px" fill="#000000" text-anchor="middle" style="white-space: pre;" direction="ltr">Upload</text></g><g stroke-linecap="round" transform="translate(579.737716924689 508.35751904329885) rotate(0 88.5825729665487 40.00000000000003)"><path d="M20 0 M20 0 C49.3 0, 78.6 0, 157.17 0 M20 0 C55.12 0, 90.25 0, 157.17 0 M157.17 0 C170.5 0, 177.17 6.67, 177.17 20 M157.17 0 C170.5 0, 177.17 6.67, 177.17 20 M177.17 20 C177.17 29.46, 177.17 38.93, 177.17 60 M177.17 20 C177.17 31.04, 177.17 42.08, 177.17 60 M177.17 60 C177.17 73.33, 170.5 80, 157.17 80 M177.17 60 C177.17 73.33, 170.5 80, 157.17 80 M157.17 80 C103.23 80, 49.3 80, 20 80 M157.17 80 C123.16 80, 89.16 80, 20 80 M20 80 C6.67 80, 0 73.33, 0 60 M20 80 C6.67 80, 0 73.33, 0 60 M0 60 C0 44.23, 0 28.46, 0 20 M0 60 C0 46.68, 0 33.36, 0 20 M0 20 C0 6.67, 6.67 0, 20 0 M0 20 C0 6.67, 6.67 0, 20 0" stroke="#495057" stroke-width="2" fill="none"></path></g><g transform="translate(613.3202898912377 513.3575190432989) rotate(0 55 35.00000000000003)"><text x="55" y="24" font-family="Virgil, Segoe UI Emoji" font-size="28px" fill="#495057" text-anchor="middle" style="white-space: pre;" direction="ltr">Shared </text><text x="55" y="59" font-family="Virgil, Segoe UI Emoji" font-size="28px" fill="#495057" text-anchor="middle" style="white-space: pre;" direction="ltr">Storage</text></g><g stroke-linecap="round"><g transform="translate(667.0500748651241 601.7509731410267) rotate(0 -0.4915676302391603 27.422201127691153)"><path d="M0 0 C-0.16 9.14, -0.82 45.7, -0.98 54.84 M0 0 C-0.16 9.14, -0.82 45.7, -0.98 54.84" stroke="#000000" stroke-width="2" fill="none"></path></g><g transform="translate(667.0500748651241 601.7509731410267) rotate(0 -0.4915676302391603 27.422201127691153)"><path d="M-9.9 28.91 C-8.05 34.29, -6.2 39.66, -0.98 54.84 M-9.9 28.91 C-8.08 34.2, -6.26 39.48, -0.98 54.84" stroke="#000000" stroke-width="2" fill="none"></path></g><g transform="translate(667.0500748651241 601.7509731410267) rotate(0 -0.4915676302391603 27.422201127691153)"><path d="M8.86 29.24 C6.82 34.55, 4.78 39.86, -0.98 54.84 M8.86 29.24 C6.85 34.46, 4.85 39.68, -0.98 54.84" stroke="#000000" stroke-width="2" fill="none"></path></g></g><mask></mask><g mask="url(#mask-nWbFZpprg3sIJ2atchVMv)" stroke-linecap="round"><g transform="translate(764.0155070752146 713.01458924355) rotate(0 166.37407114854477 0.28479877223554695)"><path d="M0 0 C26.55 -0.03, 103.87 -0.32, 159.33 -0.18 C214.79 -0.05, 303.84 0.63, 332.75 0.79 M0 0 C26.55 -0.03, 103.87 -0.32, 159.33 -0.18 C214.79 -0.05, 303.84 0.63, 332.75 0.79" stroke="#000000" stroke-width="2" fill="none"></path></g></g><mask id="mask-nWbFZpprg3sIJ2atchVMv"><rect x="0" y="0" fill="#fff" width="1196.7636493723041" height="813.9866708036664"></rect><rect x="888.8431695446468" y="695.3305573933982" fill="#000" width="69" height="35" opacity="1"></rect></mask><g transform="translate(888.843169544647 695.3305573933982) rotate(0 41.546408679112574 17.968830622387316)"><text x="34.5" y="24" font-family="Virgil, Segoe UI Emoji" font-size="28px" fill="#000000" text-anchor="middle" style="white-space: pre;" direction="ltr">Video</text></g><g stroke-linecap="round" transform="translate(130.85565885636106 674.8608908839942) rotate(0 80.61428547003243 37.410828599407296)"><path d="M18.71 0 M18.71 0 C58.4 -1.18, 97.66 -0.01, 142.52 0 M18.71 0 C51.9 -0.06, 86.61 -1.34, 142.52 0 M142.52 0 C154.84 -1.88, 159.46 7.61, 161.23 18.71 M142.52 0 C153.98 0.29, 159.54 5.9, 161.23 18.71 M161.23 18.71 C159.47 27.22, 162.2 37.96, 161.23 56.12 M161.23 18.71 C160.59 27.41, 162.39 37.21, 161.23 56.12 M161.23 56.12 C160.77 69.9, 154.77 72.88, 142.52 74.82 M161.23 56.12 C161.63 67.5, 153.24 74.34, 142.52 74.82 M142.52 74.82 C110.49 75.14, 78.62 74.44, 18.71 74.82 M142.52 74.82 C104.55 74.66, 68.17 73.92, 18.71 74.82 M18.71 74.82 C7.52 73.66, -1.07 70.31, 0 56.12 M18.71 74.82 C7.44 73.68, -0.13 68, 0 56.12 M0 56.12 C0.5 46.48, -1.6 38.85, 0 18.71 M0 56.12 C0.21 42.28, -0.75 29.36, 0 18.71 M0 18.71 C-1.31 5.85, 6.71 -0.63, 18.71 0 M0 18.71 C-0.99 4.24, 8.26 -0.23, 18.71 0" stroke="#5f3dc4" stroke-width="2" fill="none"></path></g><g transform="translate(161.9699443263935 694.7717194834015) rotate(0 49.5 17.5)"><text x="49.5" y="24" font-family="Virgil, Segoe UI Emoji" font-size="28px" fill="#5f3dc4" text-anchor="middle" style="white-space: pre;" direction="ltr">Whisper</text></g><g stroke-linecap="round" transform="translate(359.45779898203796 927.2791740669198) rotate(0 80.61428547003243 37.41082859940724)"><path d="M18.71 0 M18.71 0 C63.29 1.67, 107.26 -0.51, 142.52 0 M18.71 0 C45 1.42, 69.69 1.96, 142.52 0 M142.52 0 C153.68 0.17, 161.63 7.63, 161.23 18.71 M142.52 0 C153.5 0.71, 159.52 5.4, 161.23 18.71 M161.23 18.71 C159.44 27.06, 160.28 35.17, 161.23 56.12 M161.23 18.71 C160.51 28.6, 160.01 41.41, 161.23 56.12 M161.23 56.12 C159.49 70.44, 153.38 75.49, 142.52 74.82 M161.23 56.12 C163.03 69.27, 156.91 76.72, 142.52 74.82 M142.52 74.82 C106.47 75.68, 73.2 73.88, 18.71 74.82 M142.52 74.82 C98.63 75.2, 56.95 75.98, 18.71 74.82 M18.71 74.82 C5.82 76.05, -1.11 68.02, 0 56.12 M18.71 74.82 C5.4 72.69, 1.57 67.62, 0 56.12 M0 56.12 C-1.32 45.85, -0.28 31.87, 0 18.71 M0 56.12 C-0.58 45.67, -0.35 33.99, 0 18.71 M0 18.71 C-1.66 5.49, 4.76 -0.99, 18.71 0 M0 18.71 C-0.79 6.24, 6.15 -1.19, 18.71 0" stroke="#5f3dc4" stroke-width="2" fill="none"></path></g><g transform="translate(377.5720844520704 947.1900026663269) rotate(0 62.5 17.5)"><text x="62.5" y="24" font-family="Virgil, Segoe UI Emoji" font-size="28px" fill="#5f3dc4" text-anchor="middle" style="white-space: pre;" direction="ltr">PyAnnote</text></g><g stroke-linecap="round" transform="translate(857.6000808266253 1056.5795487913322) rotate(0 88.5 40)"><path d="M20 0 M20 0 C64.52 2.71, 107.84 2.84, 157 0 M20 0 C55.73 -0.88, 91.28 -0.34, 157 0 M157 0 C171.43 0.47, 175.03 4.92, 177 20 M157 0 C168.87 -1.84, 176.32 5.37, 177 20 M177 20 C177.59 30.99, 177.05 43.62, 177 60 M177 20 C176.63 30.95, 177.05 40.3, 177 60 M177 60 C175.04 71.75, 168.52 79.29, 157 80 M177 60 C174.96 73.7, 171.08 81.37, 157 80 M157 80 C121.07 80.06, 80.19 79.22, 20 80 M157 80 C111.65 80.4, 64.83 80.11, 20 80 M20 80 C5.23 81.48, -0.35 73.63, 0 60 M20 80 C6.21 81.05, 0.4 71.62, 0 60 M0 60 C1.23 44.35, -0.1 33.28, 0 20 M0 60 C-0.23 45.98, 0.31 31.6, 0 20 M0 20 C1.68 5.03, 6.64 1.7, 20 0 M0 20 C2.3 4.62, 7.03 -1.8, 20 0" stroke="#5f3dc4" stroke-width="2" fill="none"></path></g><g transform="translate(880.1000808266253 1079.0795487913322) rotate(0 66 17.5)"><text x="66" y="24" font-family="Virgil, Segoe UI Emoji" font-size="28px" fill="#5f3dc4" text-anchor="middle" style="white-space: pre;" direction="ltr">DeepFace</text></g><g mask="url(#mask-H2gJtYawcEF0Q4C5ePT1J)" stroke-linecap="round"><g transform="translate(927.04369506226 925.8886223124628) rotate(0 0.4063939428149297 57.84307391258284)"><path d="M0 0 C-0.11 7.11, -0.93 23.39, -0.68 42.67 C-0.42 61.95, 1.17 103.52, 1.54 115.69 M0 0 C-0.11 7.11, -0.93 23.39, -0.68 42.67 C-0.42 61.95, 1.17 103.52, 1.54 115.69" stroke="#000000" stroke-width="2" fill="none"></path></g><g transform="translate(927.04369506226 925.8886223124628) rotate(0 0.4063939428149297 57.84307391258284)"><path d="M-9.67 87.86 C-7.21 93.98, -4.74 100.1, 1.54 115.69 M-9.67 87.86 C-6.28 96.27, -2.89 104.69, 1.54 115.69" stroke="#000000" stroke-width="2" fill="none"></path></g><g transform="translate(927.04369506226 925.8886223124628) rotate(0 0.4063939428149297 57.84307391258284)"><path d="M10.84 87.16 C8.79 93.44, 6.75 99.71, 1.54 115.69 M10.84 87.16 C8.03 95.79, 5.22 104.41, 1.54 115.69" stroke="#000000" stroke-width="2" fill="none"></path></g></g><mask id="mask-H2gJtYawcEF0Q4C5ePT1J"><rect x="0" y="0" fill="#fff" width="1029.2604409582764" height="1141.5747701376285"></rect><rect x="825.8664134595033" y="951.0621590637029" fill="#000" width="201" height="35" opacity="1"></rect></mask><g transform="translate(825.8664134595031 951.0621590637028) rotate(0 101.58367554557185 32.66953716134282)"><text x="100.5" y="24" font-family="Virgil, Segoe UI Emoji" font-size="28px" fill="#000000" text-anchor="middle" style="white-space: pre;" direction="ltr">Face locations</text></g><g mask="url(#mask-078Oc2JS0dJXR5dOxSS6m)" stroke-linecap="round"><g transform="translate(935.8054692665582 1151.6327063325532) rotate(0 3.3714783818727483 156.9512914543675)"><path d="M0 0 C0.28 15.2, 0.56 38.89, 1.69 91.21 C2.81 143.53, 5.9 276.79, 6.74 313.9 M0 0 C0.28 15.2, 0.56 38.89, 1.69 91.21 C2.81 143.53, 5.9 276.79, 6.74 313.9" stroke="#000000" stroke-width="2" fill="none"></path></g><g transform="translate(935.8054692665582 1151.6327063325532) rotate(0 3.3714783818727483 156.9512914543675)"><path d="M-4.16 285.95 C-0.95 294.17, 2.25 302.4, 6.74 313.9 M-4.16 285.95 C-1.47 292.85, 1.22 299.75, 6.74 313.9" stroke="#000000" stroke-width="2" fill="none"></path></g><g transform="translate(935.8054692665582 1151.6327063325532) rotate(0 3.3714783818727483 156.9512914543675)"><path d="M16.35 285.48 C13.53 293.84, 10.7 302.2, 6.74 313.9 M16.35 285.48 C13.98 292.5, 11.61 299.51, 6.74 313.9" stroke="#000000" stroke-width="2" fill="none"></path></g></g><mask id="mask-078Oc2JS0dJXR5dOxSS6m"><rect x="0" y="0" fill="#fff" width="1042.5484260303037" height="1565.5352892412882"></rect><rect x="864.9933987688166" y="1207.8423639167147" fill="#000" width="145" height="70" opacity="1"></rect></mask><g transform="translate(864.9933987688169 1207.8423639167145) rotate(0 74.18354887961436 100.74163387020621)"><text x="72.5" y="24" font-family="Virgil, Segoe UI Emoji" font-size="28px" fill="#000000" text-anchor="middle" style="white-space: pre;" direction="ltr">Face </text><text x="72.5" y="59" font-family="Virgil, Segoe UI Emoji" font-size="28px" fill="#000000" text-anchor="middle" style="white-space: pre;" direction="ltr">embeddings</text></g><g mask="url(#mask-251r20gXthYBfOO3ruE5H)" stroke-linecap="round"><g transform="translate(1187.1894621151462 1294.2798753173913) rotate(0 -53.271170069922505 86.34399065049013)"><path d="M0 0 C-16.02 12.85, -78.66 48.3, -96.14 77.08 C-113.63 105.86, -103.44 156.75, -104.9 172.69 M0 0 C-16.02 12.85, -78.66 48.3, -96.14 77.08 C-113.63 105.86, -103.44 156.75, -104.9 172.69" stroke="#000000" stroke-width="2" fill="none"></path></g><g transform="translate(1187.1894621151462 1294.2798753173913) rotate(0 -53.271170069922505 86.34399065049013)"><path d="M-116.13 144.87 C-112.25 154.48, -108.37 164.09, -104.9 172.69 M-116.13 144.87 C-113.33 151.8, -110.53 158.74, -104.9 172.69" stroke="#000000" stroke-width="2" fill="none"></path></g><g transform="translate(1187.1894621151462 1294.2798753173913) rotate(0 -53.271170069922505 86.34399065049013)"><path d="M-95.62 144.16 C-98.83 154.02, -102.03 163.87, -104.9 172.69 M-95.62 144.16 C-97.93 151.27, -100.25 158.38, -104.9 172.69" stroke="#000000" stroke-width="2" fill="none"></path></g></g><mask id="mask-251r20gXthYBfOO3ruE5H"><rect x="0" y="0" fill="#fff" width="1392.0894357062825" height="1566.9678566183716"></rect><rect x="1045.5458299942088" y="1336.3589933039896" fill="#000" width="91" height="70" opacity="1"></rect></mask><g transform="translate(1045.5458299942088 1336.3589933039898) rotate(0 88.37246205101508 44.26487266389165)"><text x="45.5" y="24" font-family="Virgil, Segoe UI Emoji" font-size="28px" fill="#000000" text-anchor="middle" style="white-space: pre;" direction="ltr">Person</text><text x="45.5" y="59" font-family="Virgil, Segoe UI Emoji" font-size="28px" fill="#000000" text-anchor="middle" style="white-space: pre;" direction="ltr">IDs</text></g><g mask="url(#mask-1e4LNzdFGtXl6C75Xh37-)" stroke-linecap="round"><g transform="translate(216.43951801845856 764.8711380796768) rotate(0 0.649868281903025 73.48865269589567)"><path d="M0 0 C0.22 24.5, 1.08 122.48, 1.3 146.98 M0 0 C0.22 24.5, 1.08 122.48, 1.3 146.98" stroke="#000000" stroke-width="2" fill="none"></path></g><g transform="translate(216.43951801845856 764.8711380796768) rotate(0 0.649868281903025 73.48865269589567)"><path d="M-9.21 118.88 C-6.61 125.83, -4.01 132.79, 1.3 146.98 M-9.21 118.88 C-6.12 127.13, -3.04 135.38, 1.3 146.98" stroke="#000000" stroke-width="2" fill="none"></path></g><g transform="translate(216.43951801845856 764.8711380796768) rotate(0 0.649868281903025 73.48865269589567)"><path d="M11.31 118.7 C8.83 125.7, 6.36 132.69, 1.3 146.98 M11.31 118.7 C8.37 127, 5.43 135.3, 1.3 146.98" stroke="#000000" stroke-width="2" fill="none"></path></g></g><mask id="mask-1e4LNzdFGtXl6C75Xh37-"><rect x="0" y="0" fill="#fff" width="317.7392545822646" height="1011.8484434714682"></rect><rect x="136.58938630036164" y="820.8597907755724" fill="#000" width="161" height="35" opacity="1"></rect></mask><g transform="translate(136.58938630036164 820.8597907755725) rotate(0 80.49999999999994 17.5)"><text x="80.5" y="24" font-family="Virgil, Segoe UI Emoji" font-size="28px" fill="#000000" text-anchor="middle" style="white-space: pre;" direction="ltr">Transcripts</text></g><g stroke-linecap="round" transform="translate(132.2304201652429 929.650167306353) rotate(0 80.61428547003248 40)"><path d="M20 0 M20 0 C49.24 -0.37, 77.31 -1.18, 141.23 0 M20 0 C64.27 -0.63, 106.75 0.06, 141.23 0 M141.23 0 C155.03 -1.81, 161.26 8.41, 161.23 20 M141.23 0 C156.28 1.27, 160.25 6.02, 161.23 20 M161.23 20 C162.16 34.46, 163.4 48.15, 161.23 60 M161.23 20 C161.61 34.1, 161.52 49.69, 161.23 60 M161.23 60 C161.37 71.65, 154.28 79.06, 141.23 80 M161.23 60 C161.92 72.45, 153.01 81.61, 141.23 80 M141.23 80 C97.38 80.51, 52.18 76.99, 20 80 M141.23 80 C110.68 79, 79.09 80.24, 20 80 M20 80 C5.36 81.36, 0.19 74.34, 0 60 M20 80 C6.28 80.12, 2 73.82, 0 60 M0 60 C-1.11 50.24, 1.18 45.07, 0 20 M0 60 C0.66 48.67, -0.75 38.92, 0 20 M0 20 C1.11 7.05, 8.44 0.56, 20 0 M0 20 C-0.67 7.26, 7.4 -1.11, 20 0" stroke="#d9480f" stroke-width="2" fill="none"></path></g><g transform="translate(170.84470563527532 934.650167306353) rotate(0 42 35)"><text x="42" y="24" font-family="Virgil, Segoe UI Emoji" font-size="28px" fill="#d9480f" text-anchor="middle" style="white-space: pre;" direction="ltr">DeepL</text><text x="42" y="59" font-family="Virgil, Segoe UI Emoji" font-size="28px" fill="#d9480f" text-anchor="middle" style="white-space: pre;" direction="ltr">API</text></g><g stroke-linecap="round" transform="translate(10 10) rotate(0 809.0552133366498 1109.6234973322482)"><path d="M32 0 M32 0 C540.1 0, 1048.21 0, 1586.11 0 M1586.11 0 C1607.44 0, 1618.11 10.67, 1618.11 32 M1618.11 32 C1618.11 524.28, 1618.11 1016.56, 1618.11 2187.25 M1618.11 2187.25 C1618.11 2208.58, 1607.44 2219.25, 1586.11 2219.25 M1586.11 2219.25 C1229.6 2219.25, 873.08 2219.25, 32 2219.25 M32 2219.25 C10.67 2219.25, 0 2208.58, 0 2187.25 M0 2187.25 C0 1377.81, 0 568.37, 0 32 M0 32 C0 10.67, 10.67 0, 32 0" stroke="#000000" stroke-width="2.5" fill="none" stroke-dasharray="1.5 8"></path></g><g transform="translate(42.46210621963536 16.548613373619162) rotate(0 91.00000000000003 40.5)"><text x="0" y="57" font-family="Virgil, Segoe UI Emoji" font-size="63.76297075577666px" fill="#343a40" text-anchor="start" style="white-space: pre;" direction="ltr">Modal</text></g><g stroke-linecap="round" transform="translate(413.0731494495375 80.31468862005744) rotate(0 343.2536307235345 88.52469854633645)"><path d="M32 0 M32 0 C177.66 0, 323.32 0, 654.51 0 M654.51 0 C675.84 0, 686.51 10.67, 686.51 32 M686.51 32 C686.51 54.83, 686.51 77.66, 686.51 145.05 M686.51 145.05 C686.51 166.38, 675.84 177.05, 654.51 177.05 M654.51 177.05 C445.49 177.05, 236.47 177.05, 32 177.05 M32 177.05 C10.67 177.05, 0 166.38, 0 145.05 M0 145.05 C0 104.06, 0 63.07, 0 32 M0 32 C0 10.67, 10.67 0, 32 0" stroke="#e67700" stroke-width="2.5" fill="none" stroke-dasharray="1.5 8"></path></g><g transform="translate(959.593378417333 87.54629930027221) rotate(0 62 37)"><text x="0" y="25" font-family="Virgil, Segoe UI Emoji" font-size="29.22711240359772px" fill="#e67700" text-anchor="start" style="white-space: pre;" direction="ltr">Gradio</text><text x="0" y="62" font-family="Virgil, Segoe UI Emoji" font-size="29.22711240359772px" fill="#e67700" text-anchor="start" style="white-space: pre;" direction="ltr">Frontend</text></g><g mask="url(#mask-x-MHO8Gazfb8gaFkb35vn)" stroke-linecap="round"><g transform="translate(574.0197888473709 710.6562890485884) rotate(0 -131.75949739891092 1.0568172807580822)"><path d="M0 0 C-43.92 0.35, -219.6 1.76, -263.52 2.11 M0 0 C-43.92 0.35, -219.6 1.76, -263.52 2.11" stroke="#000000" stroke-width="2" fill="none"></path></g><g transform="translate(574.0197888473709 710.6562890485884) rotate(0 -131.75949739891092 1.0568172807580822)"><path d="M-235.41 -8.37 C-246.02 -4.42, -256.63 -0.46, -263.52 2.11 M-235.41 -8.37 C-244.61 -4.94, -253.8 -1.51, -263.52 2.11" stroke="#000000" stroke-width="2" fill="none"></path></g><g transform="translate(574.0197888473709 710.6562890485884) rotate(0 -131.75949739891092 1.0568172807580822)"><path d="M-235.25 12.15 C-245.92 8.36, -256.59 4.57, -263.52 2.11 M-235.25 12.15 C-244.5 8.86, -253.75 5.58, -263.52 2.11" stroke="#000000" stroke-width="2" fill="none"></path></g></g><mask id="mask-x-MHO8Gazfb8gaFkb35vn"><rect x="0" y="0" fill="#fff" width="937.5387836451928" height="812.7699236101046"></rect><rect x="405.2602914484602" y="694.2131063293464" fill="#000" width="74" height="35" opacity="1"></rect></mask><g transform="translate(405.26029144846007 694.2131063293465) rotate(0 36.99999999999994 17.5)"><text x="37" y="24" font-family="Virgil, Segoe UI Emoji" font-size="28px" fill="#000000" text-anchor="middle" style="white-space: pre;" direction="ltr">Audio</text></g><g stroke-linecap="round"><g transform="translate(441.08770432095105 742.0536096966379) rotate(0 0.000028769168920916854 85.76151774278998)"><path d="M0 0 C0 28.59, 0 142.94, 0 171.52 M0 0 C0 28.59, 0 142.94, 0 171.52" stroke="#000000" stroke-width="2" fill="none"></path></g><g transform="translate(441.08770432095105 742.0536096966379) rotate(0 0.000028769168920916854 85.76151774278998)"><path d="M-10.26 143.33 C-7.5 150.92, -4.74 158.5, 0 171.52 M-10.26 143.33 C-6.19 154.51, -2.12 165.69, 0 171.52" stroke="#000000" stroke-width="2" fill="none"></path></g><g transform="translate(441.08770432095105 742.0536096966379) rotate(0 0.000028769168920916854 85.76151774278998)"><path d="M10.26 143.33 C7.5 150.92, 4.74 158.5, 0 171.52 M10.26 143.33 C6.19 154.51, 2.12 165.69, 0 171.52" stroke="#000000" stroke-width="2" fill="none"></path></g></g><mask></mask><g stroke-linecap="round" transform="translate(204.43264767073742 1231.3071263317233) rotate(0 131.5 59)"><path d="M29.5 0 M29.5 0 C102.21 2.88, 176.11 0.97, 233.5 0 M29.5 0 C106.38 -0.48, 185.12 -1.63, 233.5 0 M233.5 0 C252.87 -1.18, 263.41 9.74, 263 29.5 M233.5 0 C252.96 1.18, 262.94 11.87, 263 29.5 M263 29.5 C262.08 51.8, 263.64 76.89, 263 88.5 M263 29.5 C262.59 46.91, 263.54 62.47, 263 88.5 M263 88.5 C264.78 109.99, 252.21 116.74, 233.5 118 M263 88.5 C262.81 108.39, 252.71 117.84, 233.5 118 M233.5 118 C189.55 116.53, 143.65 116.44, 29.5 118 M233.5 118 C157.36 116.63, 83.05 116.9, 29.5 118 M29.5 118 C11.29 119.12, 1.49 107.63, 0 88.5 M29.5 118 C8.62 119.87, 0.61 106.51, 0 88.5 M0 88.5 C-0.28 68.94, -1.85 46.19, 0 29.5 M0 88.5 C0.01 74.07, 0.55 60.63, 0 29.5 M0 29.5 C0.91 10.77, 9.2 -1.84, 29.5 0 M0 29.5 C0.16 7.9, 11 -1.35, 29.5 0" stroke="#0b7285" stroke-width="2" fill="none"></path></g><g transform="translate(211.43264767073742 1255.3071263317233) rotate(0 124.5 35)"><text x="124.5" y="24" font-family="Virgil, Segoe UI Emoji" font-size="28px" fill="#0b7285" text-anchor="middle" style="white-space: pre;" direction="ltr">Timestamp-based </text><text x="124.5" y="59" font-family="Virgil, Segoe UI Emoji" font-size="28px" fill="#0b7285" text-anchor="middle" style="white-space: pre;" direction="ltr">matching</text></g><g mask="url(#mask-tCXvZstCZVJgxLzuu1dc-)" stroke-linecap="round"><g transform="translate(202.72179264712486 1023.6058977745095) rotate(0 61.323799492506964 97.69619907193112)"><path d="M0 0 C2.2 16.1, -7.3 64.03, 13.2 96.6 C33.69 129.16, 104.69 178.93, 122.99 195.39 M0 0 C2.2 16.1, -7.3 64.03, 13.2 96.6 C33.69 129.16, 104.69 178.93, 122.99 195.39" stroke="#000000" stroke-width="2" fill="none"></path></g><g transform="translate(202.72179264712486 1023.6058977745095) rotate(0 61.323799492506964 97.69619907193112)"><path d="M94.59 185.72 C101.27 188, 107.96 190.27, 122.99 195.39 M94.59 185.72 C100.5 187.73, 106.4 189.74, 122.99 195.39" stroke="#000000" stroke-width="2" fill="none"></path></g><g transform="translate(202.72179264712486 1023.6058977745095) rotate(0 61.323799492506964 97.69619907193112)"><path d="M107.45 169.73 C111.11 175.77, 114.76 181.81, 122.99 195.39 M107.45 169.73 C110.68 175.07, 113.91 180.4, 122.99 195.39" stroke="#000000" stroke-width="2" fill="none"></path></g></g><mask id="mask-tCXvZstCZVJgxLzuu1dc-"><rect x="0" y="0" fill="#fff" width="425.70982627497654" height="1318.9982959183717"></rect><rect x="130.91797328528617" y="1085.2022748234083" fill="#000" width="170" height="70" opacity="1"></rect></mask><g transform="translate(130.91797328528617 1085.2022748234085) rotate(0 133.12761885434566 36.09982202303206)"><text x="85" y="24" font-family="Virgil, Segoe UI Emoji" font-size="28px" fill="#000000" text-anchor="middle" style="white-space: pre;" direction="ltr">Translated </text><text x="85" y="59" font-family="Virgil, Segoe UI Emoji" font-size="28px" fill="#000000" text-anchor="middle" style="white-space: pre;" direction="ltr">Text</text></g><g mask="url(#mask-glVuqFZAYoQFk6-arBwR3)" stroke-linecap="round"><g transform="translate(467.7516618521788 1013.7274570800645) rotate(0 -53.223213261789 102.63538215591694)"><path d="M0 0 C-2.43 19.21, 3.14 81.05, -14.6 115.27 C-32.34 149.48, -91.14 190.27, -106.45 205.27 M0 0 C-2.43 19.21, 3.14 81.05, -14.6 115.27 C-32.34 149.48, -91.14 190.27, -106.45 205.27" stroke="#000000" stroke-width="2" fill="none"></path></g><g transform="translate(467.7516618521788 1013.7274570800645) rotate(0 -53.223213261789 102.63538215591694)"><path d="M-91.51 179.26 C-97.23 189.23, -102.96 199.2, -106.45 205.27 M-91.51 179.26 C-95.95 186.99, -100.39 194.72, -106.45 205.27" stroke="#000000" stroke-width="2" fill="none"></path></g><g transform="translate(467.7516618521788 1013.7274570800645) rotate(0 -53.223213261789 102.63538215591694)"><path d="M-78.28 194.94 C-89.08 198.9, -99.87 202.86, -106.45 205.27 M-78.28 194.94 C-86.65 198.01, -95.02 201.08, -106.45 205.27" stroke="#000000" stroke-width="2" fill="none"></path></g></g><mask id="mask-glVuqFZAYoQFk6-arBwR3"><rect x="0" y="0" fill="#fff" width="674.1980883757568" height="1318.9982213918984"></rect><rect x="366.15265512169503" y="1111.493790287525" fill="#000" width="174" height="35" opacity="1"></rect></mask><g transform="translate(366.15265512169503 1111.493790287525) rotate(0 48.37579346869478 4.869048948456509)"><text x="87" y="24" font-family="Virgil, Segoe UI Emoji" font-size="28px" fill="#000000" text-anchor="middle" style="white-space: pre;" direction="ltr">Speaker IDs</text></g><g mask="url(#mask-SWZQeSwANnZEJbKFXYGM5)" stroke-linecap="round"><g transform="translate(593.4434822329902 391.9061793653916) rotate(0 18.819064139141915 52.85313777315889)"><path d="M0 0 C2.08 7.19, 6.19 25.5, 12.47 43.12 C18.74 60.73, 33.44 95.27, 37.64 105.71 M0 0 C2.08 7.19, 6.19 25.5, 12.47 43.12 C18.74 60.73, 33.44 95.27, 37.64 105.71" stroke="#000000" stroke-width="2" fill="none"></path></g><g transform="translate(593.4434822329902 391.9061793653916) rotate(0 18.819064139141915 52.85313777315889)"><path d="M17.4 83.56 C24.94 91.81, 32.48 100.06, 37.64 105.71 M17.4 83.56 C22.06 88.66, 26.72 93.76, 37.64 105.71" stroke="#000000" stroke-width="2" fill="none"></path></g><g transform="translate(593.4434822329902 391.9061793653916) rotate(0 18.819064139141915 52.85313777315889)"><path d="M36.37 75.73 C36.84 86.9, 37.32 98.07, 37.64 105.71 M36.37 75.73 C36.66 82.63, 36.95 89.54, 37.64 105.71" stroke="#000000" stroke-width="2" fill="none"></path></g></g><mask id="mask-SWZQeSwANnZEJbKFXYGM5"><rect x="0" y="0" fill="#fff" width="731.081610511274" height="597.6124549117094"></rect><rect x="542.4092874865687" y="417.52324743898146" fill="#000" width="127" height="35" opacity="1"></rect></mask><g transform="translate(542.4092874865688 417.52324743898146) rotate(0 69.85325888556326 27.236069699569043)"><text x="63.5" y="24" font-family="Virgil, Segoe UI Emoji" font-size="28px" fill="#000000" text-anchor="middle" style="white-space: pre;" direction="ltr">Download</text></g><g mask="url(#mask-uO02vjObUT1w-pa-GC3nf)" stroke-linecap="round"><g transform="translate(323.012078160775 1368.8076208619693) rotate(0 100.60986597238013 198.97468731342633)"><path d="M0 0 C21 18.04, 92.47 41.93, 126.01 108.26 C159.54 174.58, 188.68 349.67, 201.22 397.95 M0 0 C21 18.04, 92.47 41.93, 126.01 108.26 C159.54 174.58, 188.68 349.67, 201.22 397.95" stroke="#000000" stroke-width="2" fill="none"></path></g><g transform="translate(323.012078160775 1368.8076208619693) rotate(0 100.60986597238013 198.97468731342633)"><path d="M185.23 372.57 C189.01 378.56, 192.78 384.56, 201.22 397.95 M185.23 372.57 C188.79 378.22, 192.35 383.87, 201.22 397.95" stroke="#000000" stroke-width="2" fill="none"></path></g><g transform="translate(323.012078160775 1368.8076208619693) rotate(0 100.60986597238013 198.97468731342633)"><path d="M205.29 368.23 C204.33 375.25, 203.36 382.27, 201.22 397.95 M205.29 368.23 C204.38 374.84, 203.48 381.46, 201.22 397.95" stroke="#000000" stroke-width="2" fill="none"></path></g></g><mask id="mask-uO02vjObUT1w-pa-GC3nf"><rect x="0" y="0" fill="#fff" width="624.2318101055353" height="1866.756995488822"></rect><rect x="354.51872671151864" y="1442.065353742468" fill="#000" width="189" height="70" opacity="1"></rect></mask><g transform="translate(354.51872671151864 1442.065353742468) rotate(0 69.10321742163649 125.71695443292765)"><text x="94.5" y="24" font-family="Virgil, Segoe UI Emoji" font-size="28px" fill="#000000" text-anchor="middle" style="white-space: pre;" direction="ltr">Text with </text><text x="94.5" y="59" font-family="Virgil, Segoe UI Emoji" font-size="28px" fill="#000000" text-anchor="middle" style="white-space: pre;" direction="ltr">Speakers IDs</text></g><g stroke-linecap="round"><g transform="translate(1007.1782228686754 1240.8759860191406) rotate(0 52.584202330577455 0.2696052683348853)"><path d="M0 0 C17.53 0.09, 87.64 0.45, 105.17 0.54 M0 0 C17.53 0.09, 87.64 0.45, 105.17 0.54" stroke="#000000" stroke-width="2" fill="none"></path></g><g transform="translate(1007.1782228686754 1240.8759860191406) rotate(0 52.584202330577455 0.2696052683348853)"><path d="M76.93 10.66 C84.15 8.07, 91.38 5.48, 105.17 0.54 M76.93 10.66 C86.03 7.39, 95.14 4.13, 105.17 0.54" stroke="#000000" stroke-width="2" fill="none"></path></g><g transform="translate(1007.1782228686754 1240.8759860191406) rotate(0 52.584202330577455 0.2696052683348853)"><path d="M77.03 -9.87 C84.23 -7.2, 91.43 -4.54, 105.17 0.54 M77.03 -9.87 C86.11 -6.51, 95.18 -3.15, 105.17 0.54" stroke="#000000" stroke-width="2" fill="none"></path></g></g><mask></mask><g stroke-linecap="round" transform="translate(900.0163906756518 1487.996245481018) rotate(0 131.5 57.5)"><path d="M28.75 0 M28.75 0 C70.13 -2.14, 113.98 0.28, 234.25 0 M28.75 0 C77.76 -0.42, 127.91 -0.01, 234.25 0 M234.25 0 C252.18 1.3, 264.31 9.84, 263 28.75 M234.25 0 C251.85 -0.81, 264.73 7.58, 263 28.75 M263 28.75 C261.61 44.58, 264.42 55.08, 263 86.25 M263 28.75 C261.82 51.78, 261.88 74.31, 263 86.25 M263 86.25 C261.25 105.37, 253.85 114.73, 234.25 115 M263 86.25 C261.31 104.49, 254.53 113.3, 234.25 115 M234.25 115 C154.73 115.38, 71.34 116.14, 28.75 115 M234.25 115 C153.14 114.99, 72.85 113.95, 28.75 115 M28.75 115 C8.4 113.68, -0.8 103.67, 0 86.25 M28.75 115 C10.28 117.09, -1.97 105.05, 0 86.25 M0 86.25 C-0.66 73.43, -0.25 57.07, 0 28.75 M0 86.25 C0.2 71.84, -1.04 59.4, 0 28.75 M0 28.75 C-1.4 8.98, 8.23 -0.93, 28.75 0 M0 28.75 C-0.17 11.47, 9 -0.69, 28.75 0" stroke="#0b7285" stroke-width="2" fill="none"></path></g><g transform="translate(958.0163906756518 1510.496245481018) rotate(0 73.5 35)"><text x="73.5" y="24" font-family="Virgil, Segoe UI Emoji" font-size="28px" fill="#0b7285" text-anchor="middle" style="white-space: pre;" direction="ltr">Face ID </text><text x="73.5" y="59" font-family="Virgil, Segoe UI Emoji" font-size="28px" fill="#0b7285" text-anchor="middle" style="white-space: pre;" direction="ltr">annotation</text></g><g mask="url(#mask-uGppWPxmdjDPut7IT64d9)" stroke-linecap="round"><g transform="translate(904.9972786539909 1542.7786344716974) rotate(0 -134.34735432166212 112.07010147850542)"><path d="M0 0 C-37.3 3.9, -179 -14.12, -223.78 23.4 C-268.57 60.92, -261.21 191.51, -268.69 225.13 M0 0 C-37.3 3.9, -179 -14.12, -223.78 23.4 C-268.57 60.92, -261.21 191.51, -268.69 225.13" stroke="#000000" stroke-width="2" fill="none"></path></g><g transform="translate(904.9972786539909 1542.7786344716974) rotate(0 -134.34735432166212 112.07010147850542)"><path d="M-276.43 196.15 C-273.58 206.83, -270.73 217.51, -268.69 225.13 M-276.43 196.15 C-274.49 203.42, -272.55 210.7, -268.69 225.13" stroke="#000000" stroke-width="2" fill="none"></path></g><g transform="translate(904.9972786539909 1542.7786344716974) rotate(0 -134.34735432166212 112.07010147850542)"><path d="M-255.99 197.96 C-260.67 207.97, -265.35 217.99, -268.69 225.13 M-255.99 197.96 C-259.18 204.78, -262.37 211.6, -268.69 225.13" stroke="#000000" stroke-width="2" fill="none"></path></g></g><mask id="mask-uGppWPxmdjDPut7IT64d9"><rect x="0" y="0" fill="#fff" width="1273.691987297315" height="1867.9123053809844"></rect><rect x="600.7144526237805" y="1531.181277622516" fill="#000" width="161" height="70" opacity="1"></rect></mask><g transform="translate(600.7144526237805 1531.1812776225163) rotate(0 169.93547170854822 123.66745832768652)"><text x="80.5" y="24" font-family="Virgil, Segoe UI Emoji" font-size="28px" fill="#000000" text-anchor="middle" style="white-space: pre;" direction="ltr">Faces with </text><text x="80.5" y="59" font-family="Virgil, Segoe UI Emoji" font-size="28px" fill="#000000" text-anchor="middle" style="white-space: pre;" direction="ltr">known IDs</text></g><g stroke-linecap="round" transform="translate(446.55764700504903 1791.2725918866245) rotate(0 131.49999999999994 57.5)"><path d="M28.75 0 M28.75 0 C75.71 1.04, 120.9 1.14, 234.25 0 M28.75 0 C78.58 0.8, 129.87 0.77, 234.25 0 M234.25 0 C254.56 0.6, 264.87 7.61, 263 28.75 M234.25 0 C252.7 -1.45, 262.8 10.24, 263 28.75 M263 28.75 C265.15 42.69, 261.73 55.26, 263 86.25 M263 28.75 C262.85 48.62, 262.69 70, 263 86.25 M263 86.25 C263.03 105.76, 255 113.3, 234.25 115 M263 86.25 C264.38 103.28, 251.62 113.01, 234.25 115 M234.25 115 C154.58 116.78, 74.28 117.91, 28.75 115 M234.25 115 C175.56 113.95, 114.96 115.18, 28.75 115 M28.75 115 C8.82 113.72, -0.1 104.26, 0 86.25 M28.75 115 C10.87 113.73, 1.17 105.02, 0 86.25 M0 86.25 C1.87 66.69, -1.21 51.8, 0 28.75 M0 86.25 C-0.2 73.88, -0.79 62.92, 0 28.75 M0 28.75 C-1.53 7.79, 10.76 1.71, 28.75 0 M0 28.75 C-0.92 10.21, 10.1 1.98, 28.75 0" stroke="#0b7285" stroke-width="2" fill="none"></path></g><g transform="translate(477.55764700504903 1813.7725918866245) rotate(0 100.49999999999994 35)"><text x="100.5" y="24" font-family="Virgil, Segoe UI Emoji" font-size="28px" fill="#0b7285" text-anchor="middle" style="white-space: pre;" direction="ltr">Co-occurrence </text><text x="100.5" y="59" font-family="Virgil, Segoe UI Emoji" font-size="28px" fill="#0b7285" text-anchor="middle" style="white-space: pre;" direction="ltr">matching</text></g><g stroke-linecap="round" transform="translate(851.2189316581366 838.433510144534) rotate(0 88.5 36)"><path d="M18 0 M18 0 C52.96 0, 87.91 0, 159 0 M18 0 C49.95 0, 81.91 0, 159 0 M159 0 C171 0, 177 6, 177 18 M159 0 C171 0, 177 6, 177 18 M177 18 C177 26.81, 177 35.62, 177 54 M177 18 C177 28.38, 177 38.76, 177 54 M177 54 C177 66, 171 72, 159 72 M177 54 C177 66, 171 72, 159 72 M159 72 C109.47 72, 59.93 72, 18 72 M159 72 C126.04 72, 93.08 72, 18 72 M18 72 C6 72, 0 66, 0 54 M18 72 C6 72, 0 66, 0 54 M0 54 C0 43.2, 0 32.41, 0 18 M0 54 C0 41.71, 0 29.41, 0 18 M0 18 C0 6, 6 0, 18 0 M0 18 C0 6, 6 0, 18 0" stroke="#5f3dc4" stroke-width="2" fill="none"></path></g><g transform="translate(862.7189316581366 856.933510144534) rotate(0 77 17.5)"><text x="77" y="24" font-family="Virgil, Segoe UI Emoji" font-size="28px" fill="#5f3dc4" text-anchor="middle" style="white-space: pre;" direction="ltr">RetinaFace</text></g><g stroke-linecap="round"><g transform="translate(924.1410503545046 759.6530353489887) rotate(0 -0.05144696666889104 32.47970667684149)"><path d="M0 0 C-0.02 10.83, -0.09 54.13, -0.1 64.96 M0 0 C-0.02 10.83, -0.09 54.13, -0.1 64.96" stroke="#000000" stroke-width="2" fill="none"></path></g><g transform="translate(924.1410503545046 759.6530353489887) rotate(0 -0.05144696666889104 32.47970667684149)"><path d="M-10.32 36.75 C-6.55 47.17, -2.77 57.59, -0.1 64.96 M-10.32 36.75 C-6.49 47.34, -2.65 57.92, -0.1 64.96" stroke="#000000" stroke-width="2" fill="none"></path></g><g transform="translate(924.1410503545046 759.6530353489887) rotate(0 -0.05144696666889104 32.47970667684149)"><path d="M10.2 36.78 C6.4 47.19, 2.59 57.59, -0.1 64.96 M10.2 36.78 C6.34 47.36, 2.47 57.93, -0.1 64.96" stroke="#000000" stroke-width="2" fill="none"></path></g></g><mask></mask><g stroke-linecap="round" transform="translate(1131.4962438155906 1199.4515331991306) rotate(0 119.5 42)"><path d="M21 0 M21 0 C76.78 -0.14, 131.44 0.86, 218 0 M21 0 C71.44 -1.27, 124.24 -0.36, 218 0 M218 0 C233.96 0.45, 238.29 5.86, 239 21 M218 0 C232.89 1.15, 238.4 5.46, 239 21 M239 21 C237.61 34.58, 237.77 52.73, 239 63 M239 21 C238.33 36.86, 238.46 54.04, 239 63 M239 63 C239.82 76.51, 231.3 84.55, 218 84 M239 63 C237.97 78.4, 231.14 82.71, 218 84 M218 84 C149.67 84.02, 81.98 83.57, 21 84 M218 84 C147.47 83.6, 77.01 85.02, 21 84 M21 84 C8.96 85.65, -0.75 77.71, 0 63 M21 84 C8.85 84.67, -0.19 76.3, 0 63 M0 63 C-1.14 54.02, -0.3 45.3, 0 21 M0 63 C0.83 50.66, 0.85 40.12, 0 21 M0 21 C0.04 7.37, 6.74 0.2, 21 0 M0 21 C0.88 7.4, 8.71 1.04, 21 0" stroke="#5f3dc4" stroke-width="2" fill="none"></path></g><g transform="translate(1157.9962438155906 1206.4515331991306) rotate(0 93 35)"><text x="93" y="24" font-family="Virgil, Segoe UI Emoji" font-size="28px" fill="#5f3dc4" text-anchor="middle" style="white-space: pre;" direction="ltr">Agglomerative</text><text x="93" y="59" font-family="Virgil, Segoe UI Emoji" font-size="28px" fill="#5f3dc4" text-anchor="middle" style="white-space: pre;" direction="ltr">Clustering</text></g><g mask="url(#mask-hxC3Wl5_DDyRc7N0Rxf9J)" stroke-linecap="round"><g transform="translate(730.4974815701014 1856.2350073240573) rotate(0 262.69955200181187 -2.5490382659254465)"><path d="M0 0 C87.57 -0.85, 437.83 -4.25, 525.4 -5.1 M0 0 C87.57 -0.85, 437.83 -4.25, 525.4 -5.1" stroke="#000000" stroke-width="2" fill="none"></path></g><g transform="translate(730.4974815701014 1856.2350073240573) rotate(0 262.69955200181187 -2.5490382659254465)"><path d="M497.31 5.44 C507.39 1.66, 517.47 -2.12, 525.4 -5.1 M497.31 5.44 C503.71 3.03, 510.12 0.63, 525.4 -5.1" stroke="#000000" stroke-width="2" fill="none"></path></g><g transform="translate(730.4974815701014 1856.2350073240573) rotate(0 262.69955200181187 -2.5490382659254465)"><path d="M497.11 -15.08 C507.26 -11.5, 517.41 -7.92, 525.4 -5.1 M497.11 -15.08 C503.56 -12.81, 510.01 -10.53, 525.4 -5.1" stroke="#000000" stroke-width="2" fill="none"></path></g></g><mask id="mask-hxC3Wl5_DDyRc7N0Rxf9J"><rect x="0" y="0" fill="#fff" width="1355.8965855737251" height="1961.3330838559082"></rect><rect x="922.1970335719132" y="1818.6859690581318" fill="#000" width="142" height="70" opacity="1"></rect></mask><g transform="translate(922.1970335719134 1818.6859690581318) rotate(0 71.00000000000011 35)"><text x="71" y="24" font-family="Virgil, Segoe UI Emoji" font-size="28px" fill="#000000" text-anchor="middle" style="white-space: pre;" direction="ltr">All Frame</text><text x="71" y="59" font-family="Virgil, Segoe UI Emoji" font-size="28px" fill="#000000" text-anchor="middle" style="white-space: pre;" direction="ltr">Metadata</text></g><g stroke-linecap="round"><g transform="translate(1097.0515531942574 713.9555132743676) rotate(0 181.63595564278012 529.3477050020932)"><path d="M0 0 C118.72 1.21, 237.43 2.41, 347.74 3.53 M0 0 C102.56 1.04, 205.12 2.08, 347.74 3.53 M347.74 3.53 C351.65 268.98, 355.55 534.43, 363.27 1058.7 M347.74 3.53 C353.26 378.94, 358.79 754.34, 363.27 1058.7" stroke="#000000" stroke-width="2" fill="none"></path></g><g transform="translate(1097.0515531942574 713.9555132743676) rotate(0 181.63595564278012 529.3477050020932)"><path d="M352.6 1030.66 C356.24 1040.23, 359.89 1049.8, 363.27 1058.7 M352.6 1030.66 C355.75 1038.93, 358.89 1047.2, 363.27 1058.7" stroke="#000000" stroke-width="2" fill="none"></path></g><g transform="translate(1097.0515531942574 713.9555132743676) rotate(0 181.63595564278012 529.3477050020932)"><path d="M373.12 1030.36 C369.76 1040.03, 366.39 1049.71, 363.27 1058.7 M373.12 1030.36 C370.21 1038.71, 367.31 1047.07, 363.27 1058.7" stroke="#000000" stroke-width="2" fill="none"></path></g></g><mask></mask><g stroke-linecap="round" transform="translate(1272.9630192335824 1795.2836925110748) rotate(0 149 57.5)"><path d="M28.75 0 M28.75 0 C91.36 -1.91, 149.11 -0.04, 269.25 0 M28.75 0 C103.63 -1, 178.66 -0.73, 269.25 0 M269.25 0 C289.85 0.25, 296.18 10.81, 298 28.75 M269.25 0 C286.66 1.79, 297.59 10.37, 298 28.75 M298 28.75 C295.72 44.44, 297.87 55.89, 298 86.25 M298 28.75 C298.06 47.53, 297.39 64.44, 298 86.25 M298 86.25 C299.29 104.4, 287.76 113.01, 269.25 115 M298 86.25 C299.2 103.89, 288.49 116.85, 269.25 115 M269.25 115 C205.81 115.42, 143.69 114.85, 28.75 115 M269.25 115 C195.57 115.13, 122.7 116.2, 28.75 115 M28.75 115 C7.63 114.78, 1.89 107.3, 0 86.25 M28.75 115 C7.48 116.21, -1.49 103.5, 0 86.25 M0 86.25 C1.72 70.36, 0.75 54.06, 0 28.75 M0 86.25 C-0.78 72.23, -0.6 59.06, 0 28.75 M0 28.75 C-1.87 8.78, 11.13 -0.64, 28.75 0 M0 28.75 C0.95 7.58, 11.59 -1.75, 28.75 0" stroke="#0b7285" stroke-width="2" fill="none"></path></g><g transform="translate(1294.4630192335824 1817.7836925110748) rotate(0 127.5 35)"><text x="127.5" y="24" font-family="Virgil, Segoe UI Emoji" font-size="28px" fill="#0b7285" text-anchor="middle" style="white-space: pre;" direction="ltr">PIL / OpenCV</text><text x="127.5" y="59" font-family="Virgil, Segoe UI Emoji" font-size="28px" fill="#0b7285" text-anchor="middle" style="white-space: pre;" direction="ltr"> Frame Annotation</text></g><g stroke-linecap="round"><g transform="translate(1416.4642150167783 1927.4673783026522) rotate(0 1.7373445157635388 42.219839904917876)"><path d="M0 0 C0.58 14.07, 2.9 70.37, 3.47 84.44 M0 0 C0.58 14.07, 2.9 70.37, 3.47 84.44" stroke="#000000" stroke-width="2" fill="none"></path></g><g transform="translate(1416.4642150167783 1927.4673783026522) rotate(0 1.7373445157635388 42.219839904917876)"><path d="M-7.94 56.69 C-4.59 64.82, -1.25 72.95, 3.47 84.44 M-7.94 56.69 C-4.21 65.76, -0.48 74.82, 3.47 84.44" stroke="#000000" stroke-width="2" fill="none"></path></g><g transform="translate(1416.4642150167783 1927.4673783026522) rotate(0 1.7373445157635388 42.219839904917876)"><path d="M12.57 55.85 C9.9 64.22, 7.24 72.6, 3.47 84.44 M12.57 55.85 C9.6 65.19, 6.63 74.53, 3.47 84.44" stroke="#000000" stroke-width="2" fill="none"></path></g></g><mask></mask><g stroke-linecap="round" transform="translate(1329.9722228011085 2035.9324483474818) rotate(0 94.5 55.999999999999886)"><path d="M28 0 M28 0 C71.18 -0.22, 118.5 -1.95, 161 0 M28 0 C71.49 0.86, 113.14 -0.48, 161 0 M161 0 C180.21 1.78, 189.42 7.97, 189 28 M161 0 C181.73 1.21, 187.81 11.53, 189 28 M189 28 C190.5 41.76, 189.26 56.37, 189 84 M189 28 C189.03 47.99, 188.52 68.18, 189 84 M189 84 C190.37 100.77, 178.83 112.96, 161 112 M189 84 C191.15 100.91, 181.82 110.81, 161 112 M161 112 C132.99 115.1, 108.73 111.46, 28 112 M161 112 C120.7 112.26, 79.89 113.54, 28 112 M28 112 C10.41 113.55, -1.98 100.71, 0 84 M28 112 C8.47 112.21, 1.2 101.43, 0 84 M0 84 C-2.2 63.35, 0.77 43.08, 0 28 M0 84 C0.78 64.65, -0.38 46.17, 0 28 M0 28 C1.32 7.86, 9.07 -1.5, 28 0 M0 28 C-0.37 7.13, 10.64 0.05, 28 0" stroke="#2b8a3e" stroke-width="2" fill="none"></path></g><g transform="translate(1372.9722228011085 2056.932448347482) rotate(0 51.5 34.999999999999886)"><text x="51.5" y="24" font-family="Virgil, Segoe UI Emoji" font-size="28px" fill="#2b8a3e" text-anchor="middle" style="white-space: pre;" direction="ltr">ffmpeg </text><text x="51.5" y="59" font-family="Virgil, Segoe UI Emoji" font-size="28px" fill="#2b8a3e" text-anchor="middle" style="white-space: pre;" direction="ltr">writer</text></g></svg>